<?xml version="1.0" encoding="UTF-8" standalone="no"?>
<!-- Created with Inkscape (http://www.inkscape.org/) -->

<svg
   xmlns:dc="http://purl.org/dc/elements/1.1/"
   xmlns:cc="http://creativecommons.org/ns#"
   xmlns:rdf="http://www.w3.org/1999/02/22-rdf-syntax-ns#"
   xmlns:svg="http://www.w3.org/2000/svg"
   xmlns="http://www.w3.org/2000/svg"
   xmlns:xlink="http://www.w3.org/1999/xlink"
   xmlns:sodipodi="http://sodipodi.sourceforge.net/DTD/sodipodi-0.dtd"
   xmlns:inkscape="http://www.inkscape.org/namespaces/inkscape"
   width="630"
   height="180"
   id="svg2"
   version="1.1"
   inkscape:version="0.48.2 r9819"
   sodipodi:docname="Business Card Ad Simple.svg">
  <defs
     id="defs4">
    <linearGradient
       id="linearGradient3266">
      <stop
         style="stop-color:#000000;stop-opacity:1;"
         offset="0"
         id="stop3268" />
      <stop
         style="stop-color:#000000;stop-opacity:0.9852941;"
         offset="1"
         id="stop3270" />
    </linearGradient>
    <linearGradient
       id="linearGradient3146">
      <stop
         style="stop-color:#00640e;stop-opacity:1;"
         offset="0"
         id="stop3148" />
      <stop
         id="stop4089"
         offset="0.19356874"
         style="stop-color:#4ba558;stop-opacity:0.78921568;" />
      <stop
         style="stop-color:#3f8a4a;stop-opacity:0.74901962;"
         offset="0.31323063"
         id="stop4939" />
      <stop
         id="stop4087"
         offset="0.43899322"
         style="stop-color:#63b56f;stop-opacity:0.80000001;" />
      <stop
         style="stop-color:#00640e;stop-opacity:0.79901963;"
         offset="1"
         id="stop3150" />
    </linearGradient>
    <inkscape:path-effect
       pattern-nodetypes="ccccccc"
       fuse_tolerance="0"
       vertical_pattern="false"
       prop_units="false"
       tang_offset="0"
       normal_offset="0"
       spacing="0"
       scale_y_rel="false"
       prop_scale="1"
       copytype="single_stretched"
       pattern="m 29.144441,44.338197 0.0302,0.70978 10.12564,5.16009 8.12353,0.0528 11.85268,-3.59712 -16.16098,-4.54028 z"
       is_visible="true"
       id="path-effect4679-7"
       effect="skeletal" />
    <inkscape:path-effect
       is_visible="true"
       id="path-effect4677-1"
       effect="spiro" />
    <clipPath
       id="clipPath3039"
       clipPathUnits="userSpaceOnUse">
      <path
         id="path3041"
         d="M 0,480 640,480 640,0 0,0 0,480 z"
         inkscape:connector-curvature="0" />
    </clipPath>
    <inkscape:path-effect
       is_visible="true"
       id="path-effect4673"
       effect="spiro" />
    <inkscape:path-effect
       is_visible="true"
       id="path-effect4677"
       effect="spiro" />
    <inkscape:path-effect
       pattern-nodetypes="cccccc"
       fuse_tolerance="0"
       vertical_pattern="false"
       prop_units="false"
       tang_offset="0"
       normal_offset="0"
       spacing="0"
       scale_y_rel="false"
       prop_scale="1"
       copytype="single_stretched"
       pattern="m 175.84049,561.22677 0.0302,0.70978 8.99917,3.71292 21.10268,-2.09712 -16.16098,-4.54028 z"
       is_visible="true"
       id="path-effect4679"
       effect="skeletal" />
    <inkscape:path-effect
       vertical="false"
       scale_y_rel="false"
       prop_scale="1"
       bendpath="m 145.95755,541.95588 136.18531,0"
       is_visible="true"
       id="path-effect4681"
       effect="bend_path" />
    <inkscape:path-effect
       effect="spiro"
       id="path-effect3123"
       is_visible="true" />
    <inkscape:path-effect
       effect="skeletal"
       id="path-effect3125"
       is_visible="true"
       pattern="m 466.90537,1119.5893 0.0302,0.7098 8.99917,3.7129 21.10268,-2.0971 -16.16098,-4.5403 z"
       copytype="single_stretched"
       prop_scale="1"
       scale_y_rel="false"
       spacing="0"
       normal_offset="0"
       tang_offset="0"
       prop_units="false"
       vertical_pattern="false"
       fuse_tolerance="0"
       pattern-nodetypes="cccccc" />
    <linearGradient
       inkscape:collect="always"
       xlink:href="#linearGradient3266"
       id="linearGradient3272"
       x1="-691.51361"
       y1="133.50668"
       x2="-584.71381"
       y2="133.50668"
       gradientUnits="userSpaceOnUse" />
    <radialGradient
       inkscape:collect="always"
       xlink:href="#linearGradient3146"
       id="radialGradient4083"
       cx="206.06982"
       cy="679.34729"
       fx="206.06982"
       fy="679.34729"
       r="158.40402"
       gradientTransform="matrix(1.478283,2.3654576e-7,0,1.447037,-94.518356,-305.02144)"
       gradientUnits="userSpaceOnUse" />
  </defs>
  <sodipodi:namedview
     id="base"
     pagecolor="#ffffff"
     bordercolor="#666666"
     borderopacity="1.0"
     inkscape:pageopacity="0.0"
     inkscape:pageshadow="2"
     inkscape:zoom="1.4"
     inkscape:cx="248.89265"
     inkscape:cy="126.26371"
     inkscape:document-units="px"
     inkscape:current-layer="layer1-7"
     showgrid="true"
     units="in"
     inkscape:window-width="1600"
     inkscape:window-height="838"
     inkscape:window-x="-8"
     inkscape:window-y="-8"
     inkscape:window-maximized="1"
     showguides="true"
     inkscape:guide-bbox="true"
     inkscape:snap-grids="false"
     width="7in">
    <inkscape:grid
       type="xygrid"
       id="grid3164"
       empspacing="6"
       visible="true"
       enabled="true"
       snapvisiblegridlinesonly="true"
       spacingx="52.5px"
       spacingy="30px" />
  </sodipodi:namedview>
  <metadata
     id="metadata7">
    <rdf:RDF>
      <cc:Work
         rdf:about="">
        <dc:format>image/svg+xml</dc:format>
        <dc:type
           rdf:resource="http://purl.org/dc/dcmitype/StillImage" />
        <dc:title></dc:title>
      </cc:Work>
    </rdf:RDF>
  </metadata>
  <g
     inkscape:label="Layer 1"
     inkscape:groupmode="layer"
     id="layer1"
     transform="translate(0,-872.35975)">
    <g
       id="layer1-7"
       inkscape:label="QSlice"
       transform="translate(-116.74734,284.59939)">
      <rect
         style="fill:url(#radialGradient4083);fill-opacity:1;stroke:#ffffff;stroke-width:0;stroke-miterlimit:4;stroke-opacity:1;stroke-dasharray:none"
         id="rect3144"
         width="316.80804"
         height="181.42857"
         x="115.91251"
         y="586.72461" />
      <g
         id="g3113"
         transform="matrix(0.91936068,0,0,0.91936068,34.217508,87.381959)">
        <g
           id="g4043"
           transform="translate(-15.891696,132.21895)">
          <path
             style="fill:#00640d;fill-opacity:1;fill-rule:evenodd;stroke:#ffffff;stroke-width:0;stroke-linecap:butt;stroke-linejoin:miter;stroke-miterlimit:4;stroke-opacity:1;stroke-dasharray:none"
             d="m 261.60191,509.90322 c 0,30.30178 -24.56448,54.86626 -54.86626,54.86626 -30.30181,0 -54.86628,-24.56448 -54.86628,-54.86626 0,-30.30181 24.56447,-54.86626 54.86628,-54.86626 30.30178,0 54.86626,24.56445 54.86626,54.86626 z"
             id="path3226"
             inkscape:connector-curvature="0" />
          <path
             inkscape:connector-curvature="0"
             id="path3575"
             d="m 261.56188,509.98268 c 0,30.30178 -24.56448,54.86626 -54.86626,54.86626 -30.30181,0 -54.86628,-24.56448 -54.86628,-54.86626 0,-30.30181 24.56447,-54.86626 54.86628,-54.86626 30.30178,0 54.86626,24.56445 54.86626,54.86626 z"
             style="fill:#00640d;fill-opacity:1;fill-rule:evenodd;stroke:#ffffff;stroke-width:0;stroke-linecap:butt;stroke-linejoin:miter;stroke-miterlimit:4;stroke-opacity:1;stroke-dasharray:none" />
          <path
             inkscape:connector-curvature="0"
             style="fill:#bce089;fill-opacity:1;fill-rule:evenodd;stroke:#000000;stroke-width:0;stroke-linecap:butt;stroke-linejoin:miter;stroke-miterlimit:4;stroke-opacity:1"
             d="m 257.32883,510.08863 c 0,27.90543 -22.62183,50.52726 -50.52727,50.52726 -27.90543,0 -50.52727,-22.62183 -50.52727,-50.52726 0,-27.90544 22.62184,-50.52727 50.52727,-50.52727 27.90544,0 50.52727,22.62183 50.52727,50.52727 z"
             id="path4346" />
          <g
             style="fill:#ffffff;fill-opacity:1"
             id="g3035"
             transform="matrix(0.83812996,0,0,-0.83812996,139.75824,768.67173)">
            <g
               style="fill:#ffffff;fill-opacity:1"
               clip-path="url(#clipPath3039)"
               id="g3037">
              <g
                 style="fill:#ffffff;fill-opacity:1"
                 transform="translate(71.7104,328.0596)"
                 id="g3043">
                <path
                   id="path3045"
                   style="fill:#ffffff;fill-opacity:1;fill-rule:nonzero;stroke:none"
                   d="m 0,0 -12.558,-2.754 11.862,-4.935 c 0.637,-0.326 1.362,-0.542 2.139,-0.613 2.778,-0.251 5.174,1.445 5.353,3.788 C 6.976,-2.171 4.87,-0.066 2.093,0.187 1.356,0.253 0.647,0.183 0,0"
                   inkscape:connector-curvature="0" />
              </g>
              <g
                 style="fill:#ffffff;fill-opacity:1"
                 transform="translate(64.0283,337.8711)"
                 id="g3047">
                <path
                   id="path3049"
                   style="fill:#ffffff;fill-opacity:1;fill-rule:nonzero;stroke:none"
                   d="m 0,0 -6.896,-7.924 9.301,3.804 c 0.523,0.174 1.059,0.448 1.575,0.821 1.844,1.332 2.726,3.416 1.972,4.654 C 5.198,2.594 3.092,2.52 1.25,1.187 0.761,0.834 0.34,0.428 0,0"
                   inkscape:connector-curvature="0" />
              </g>
              <g
                 style="fill:#ffffff;fill-opacity:1"
                 transform="translate(48.5054,310.2783)"
                 id="g3051">
                <path
                   id="path3053"
                   style="fill:#ffffff;fill-opacity:1;fill-rule:nonzero;stroke:none"
                   d="M 0,0 3.474,10.241 4.456,-0.526 C 4.544,-1.114 4.556,-1.76 4.477,-2.429 4.195,-4.819 2.87,-6.603 1.517,-6.414 0.164,-6.226 -0.707,-4.135 -0.425,-1.745 -0.351,-1.112 -0.203,-0.521 0,0"
                   inkscape:connector-curvature="0" />
              </g>
              <g
                 style="fill:#ffffff;fill-opacity:1"
                 transform="translate(65.9937,312.4668)"
                 id="g3055">
                <path
                   id="path3057"
                   style="fill:#ffffff;fill-opacity:1;fill-rule:nonzero;stroke:none"
                   d="m 0,0 -9.95,8.79 4.065,-13.103 c 0.177,-0.745 0.485,-1.49 0.931,-2.188 1.592,-2.491 4.318,-3.424 6.089,-2.079 1.775,1.34 1.921,4.449 0.331,6.941 C 1.043,-0.977 0.542,-0.427 0,0"
                   inkscape:connector-curvature="0" />
              </g>
              <g
                 style="fill:#ffffff;fill-opacity:1"
                 transform="translate(100.8579,308.6846)"
                 id="g3059">
                <path
                   id="path3061"
                   style="fill:#ffffff;fill-opacity:1;fill-rule:nonzero;stroke:none"
                   d="M 0,0 3.313,13.48 -6.015,4.096 C -6.565,3.619 -7.066,3.007 -7.469,2.28 c -1.441,-2.599 -1.11,-5.692 0.738,-6.906 1.847,-1.218 4.514,-0.097 5.955,2.501 C -0.394,-1.435 -0.137,-0.713 0,0"
                   inkscape:connector-curvature="0" />
              </g>
              <g
                 style="fill:#ffffff;fill-opacity:1"
                 transform="translate(112.3403,311.8242)"
                 id="g3063">
                <path
                   id="path3065"
                   style="fill:#ffffff;fill-opacity:1;fill-rule:nonzero;stroke:none"
                   d="M 0,0 -3.454,10.249 -4.457,-0.517 c -0.089,-0.587 -0.102,-1.233 -0.024,-1.901 0.277,-2.392 1.599,-4.18 2.952,-3.992 1.354,0.185 2.228,2.273 1.95,4.664 C 0.348,-1.113 0.201,-0.522 0,0"
                   inkscape:connector-curvature="0" />
              </g>
              <g
                 style="fill:#ffffff;fill-opacity:1"
                 transform="translate(96.541,339.2295)"
                 id="g3067">
                <path
                   id="path3069"
                   style="fill:#ffffff;fill-opacity:1;fill-rule:nonzero;stroke:none"
                   d="m 0,0 6.88,-7.938 -9.293,3.824 c -0.522,0.175 -1.058,0.451 -1.573,0.825 -1.841,1.336 -2.719,3.421 -1.963,4.658 0.756,1.237 2.862,1.157 4.702,-0.179 C -0.759,0.836 -0.339,0.429 0,0"
                   inkscape:connector-curvature="0" />
              </g>
              <g
                 style="fill:#ffffff;fill-opacity:1"
                 transform="translate(90.5723,321.1904)"
                 id="g3071">
                <path
                   id="path3073"
                   style="fill:#ffffff;fill-opacity:1;fill-rule:nonzero;stroke:none"
                   d="M 0,0 11.65,5.806 -0.934,7.658 c -0.69,0.16 -1.44,0.19 -2.212,0.065 C -5.902,7.276 -7.88,5.028 -7.561,2.704 -7.248,0.376 -4.754,-1.147 -1.999,-0.703 -1.267,-0.583 -0.592,-0.339 0,0"
                   inkscape:connector-curvature="0" />
              </g>
              <g
                 style="fill:#ffffff;fill-opacity:1"
                 transform="translate(69.7388,290.624)"
                 id="g3075">
                <path
                   id="path3077"
                   style="fill:#ffffff;fill-opacity:1;fill-rule:nonzero;stroke:none"
                   d="M 0,0 8.778,-10.163 6.362,3.416 C 6.28,4.178 6.066,4.963 5.71,5.719 4.439,8.421 1.852,9.742 -0.07,8.67 -1.991,7.6 -2.52,4.54 -1.25,1.838 -0.913,1.121 -0.484,0.503 0,0"
                   inkscape:connector-curvature="0" />
              </g>
              <g
                 style="fill:#ffffff;fill-opacity:1"
                 transform="translate(66.146,278.3369)"
                 id="g3079">
                <path
                   id="path3081"
                   style="fill:#ffffff;fill-opacity:1;fill-rule:nonzero;stroke:none"
                   d="M 0,0 9.818,-2.194 1.942,4.4 C 1.53,4.792 1.033,5.144 0.47,5.424 -1.542,6.426 -3.632,6.142 -4.199,4.79 -4.767,3.438 -3.597,1.53 -1.585,0.529 -1.052,0.264 -0.514,0.089 0,0"
                   inkscape:connector-curvature="0" />
              </g>
              <g
                 style="fill:#ffffff;fill-opacity:1"
                 transform="translate(95.854,278.5469)"
                 id="g3083">
                <path
                   id="path3085"
                   style="fill:#ffffff;fill-opacity:1;fill-rule:nonzero;stroke:none"
                   d="M 0,0 -9.818,-2.194 -1.942,4.4 C -1.53,4.792 -1.033,5.144 -0.47,5.424 1.542,6.426 3.632,6.142 4.199,4.79 4.767,3.438 3.597,1.53 1.585,0.529 1.052,0.264 0.514,0.089 0,0"
                   inkscape:connector-curvature="0" />
              </g>
              <g
                 style="fill:#ffffff;fill-opacity:1"
                 transform="translate(84.9141,293.5693)"
                 id="g3087">
                <path
                   id="path3089"
                   style="fill:#ffffff;fill-opacity:1;fill-rule:nonzero;stroke:none"
                   d="M 0,0 -1.599,-13.846 6.47,-3.166 C 6.957,-2.61 7.375,-1.932 7.684,-1.15 8.786,1.638 8.073,4.652 6.089,5.581 4.108,6.515 1.606,5.008 0.503,2.221 0.21,1.48 0.046,0.727 0,0"
                   inkscape:connector-curvature="0" />
              </g>
            </g>
          </g>
          <path
             sodipodi:nodetypes="cssc"
             inkscape:connector-curvature="0"
             inkscape:original-d="m 177.87764,555.59366 c 0,0 44.76364,-22.27893 37.27606,-9.96217 -196.385316,323.0457 2.37186,14.07726 26.39871,12.6969 11.54025,-0.663 32.04424,-2.73789 32.04424,-2.73789"
             inkscape:path-effect="#path-effect4677;#path-effect4679"
             id="path4675"
             d="m 177.06735,554.84383 c 0.19779,0.13462 0.39514,0.26977 0.59206,0.40546 5.24461,-4.44015 11.59301,-7.1962 17.94407,-8.0499 3.31281,-0.44708 6.63719,-0.38048 9.82441,0.14259 2.96852,-0.003 5.94957,0.38995 8.8237,1.18691 4.3233,1.17153 8.53768,3.35396 12.85987,5.60801 4.3164,2.28063 8.80343,4.67284 13.72279,6.25266 0,0 0,0 0,0 11.14007,3.53255 23.53632,2.0669 33.3542,-3.7304 -10.41186,4.72471 -22.44137,4.60333 -32.14397,0.25697 -1e-5,0 -1e-5,0 -1e-5,0 -4.31828,-1.91885 -8.24102,-4.65775 -12.32803,-7.40594 -2.0892,-1.42157 -4.23816,-2.85583 -6.51754,-4.18884 -2.29165,-0.98774 -4.67075,-1.8721 -7.15678,-2.54329 -7.11938,-1.88504 -14.64268,-1.68667 -21.49517,0.46802 0,0 0,0 0,0 -6.85161,2.15801 -12.95849,6.25095 -17.4796,11.59775 z"
             style="fill:#00640d;fill-opacity:1;fill-rule:evenodd;stroke:#ffffff;stroke-width:0;stroke-miterlimit:4;stroke-opacity:1;stroke-dasharray:none" />
        </g>
      </g>
    </g>
  </g>
</svg>
