<?xml version="1.0" encoding="UTF-8" standalone="no"?>
<!-- Created with Inkscape (http://www.inkscape.org/) -->

<svg
   xmlns:dc="http://purl.org/dc/elements/1.1/"
   xmlns:cc="http://creativecommons.org/ns#"
   xmlns:rdf="http://www.w3.org/1999/02/22-rdf-syntax-ns#"
   xmlns:svg="http://www.w3.org/2000/svg"
   xmlns="http://www.w3.org/2000/svg"
   xmlns:sodipodi="http://sodipodi.sourceforge.net/DTD/sodipodi-0.dtd"
   xmlns:inkscape="http://www.inkscape.org/namespaces/inkscape"
   width="744.09448819"
   height="1052.3622047"
   id="svg3559"
   version="1.1"
   inkscape:version="0.48.2 r9819"
   sodipodi:docname="LogoFull.svg"
   inkscape:export-filename="C:\django\QcumberD\Assets\LogoSmall.png"
   inkscape:export-xdpi="163.47847"
   inkscape:export-ydpi="163.47847">
  <defs
     id="defs3561">
    <inkscape:path-effect
       pattern-nodetypes="cccccc"
       fuse_tolerance="0"
       vertical_pattern="false"
       prop_units="false"
       tang_offset="0"
       normal_offset="0"
       spacing="0"
       scale_y_rel="false"
       prop_scale="1"
       copytype="single_stretched"
       pattern="m 466.90537,1119.5893 0.0302,0.7098 8.99917,3.7129 21.10268,-2.0971 -16.16098,-4.5403 z"
       is_visible="true"
       id="path-effect3125"
       effect="skeletal" />
    <inkscape:path-effect
       is_visible="true"
       id="path-effect3123"
       effect="spiro" />
    <inkscape:path-effect
       effect="bend_path"
       id="path-effect4681"
       is_visible="true"
       bendpath="m 145.95755,541.95588 136.18531,0"
       prop_scale="1"
       scale_y_rel="false"
       vertical="false" />
    <inkscape:path-effect
       effect="skeletal"
       id="path-effect4679"
       is_visible="true"
       pattern="m 176.72179,552.57588 0.0302,0.70978 8.99917,3.71292 21.10268,-2.09712 -16.16098,-4.54028 z"
       copytype="single_stretched"
       prop_scale="1"
       scale_y_rel="false"
       spacing="0"
       normal_offset="0"
       tang_offset="0"
       prop_units="false"
       vertical_pattern="false"
       fuse_tolerance="0"
       pattern-nodetypes="cccccc" />
    <inkscape:path-effect
       effect="spiro"
       id="path-effect4677"
       is_visible="true" />
    <inkscape:path-effect
       effect="spiro"
       id="path-effect4673"
       is_visible="true" />
    <clipPath
       clipPathUnits="userSpaceOnUse"
       id="clipPath3039">
      <path
         inkscape:connector-curvature="0"
         d="M 0,480 640,480 640,0 0,0 0,480 z"
         id="path3041" />
    </clipPath>
    <inkscape:path-effect
       effect="spiro"
       id="path-effect4677-1"
       is_visible="true" />
    <inkscape:path-effect
       effect="skeletal"
       id="path-effect4679-7"
       is_visible="true"
       pattern="m 29.144441,44.338197 0.0302,0.70978 10.12564,5.16009 8.12353,0.0528 11.85268,-3.59712 -16.16098,-4.54028 z"
       copytype="single_stretched"
       prop_scale="1"
       scale_y_rel="false"
       spacing="0"
       normal_offset="0"
       tang_offset="0"
       prop_units="false"
       vertical_pattern="false"
       fuse_tolerance="0"
       pattern-nodetypes="ccccccc" />
  </defs>
  <sodipodi:namedview
     id="base"
     pagecolor="#ffffff"
     bordercolor="#666666"
     borderopacity="1.0"
     inkscape:pageopacity="0.0"
     inkscape:pageshadow="2"
     inkscape:zoom="1.4142136"
     inkscape:cx="334.18883"
     inkscape:cy="551.87129"
     inkscape:document-units="px"
     inkscape:current-layer="layer1"
     showgrid="false"
     inkscape:window-width="1600"
     inkscape:window-height="838"
     inkscape:window-x="-8"
     inkscape:window-y="-8"
     inkscape:window-maximized="1" />
  <metadata
     id="metadata3564">
    <rdf:RDF>
      <cc:Work
         rdf:about="">
        <dc:format>image/svg+xml</dc:format>
        <dc:type
           rdf:resource="http://purl.org/dc/dcmitype/StillImage" />
        <dc:title></dc:title>
      </cc:Work>
    </rdf:RDF>
  </metadata>
  <g
     inkscape:label="QSlice"
     inkscape:groupmode="layer"
     id="layer1">
    <path
       style="fill:#00640d;fill-opacity:1;fill-rule:evenodd;stroke:#ffffff;stroke-width:0;stroke-linecap:butt;stroke-linejoin:miter;stroke-miterlimit:4;stroke-opacity:1;stroke-dasharray:none"
       d="m 262.44318,501.33179 c 0,30.30178 -24.56448,54.86626 -54.86626,54.86626 -30.30181,0 -54.86628,-24.56448 -54.86628,-54.86626 0,-30.30181 24.56447,-54.86626 54.86628,-54.86626 30.30178,0 54.86626,24.56445 54.86626,54.86626 z"
       id="path3575"
       inkscape:connector-curvature="0" />
    <path
       id="path4346"
       d="m 258.21013,501.43774 c 0,27.90543 -22.62183,50.52726 -50.52727,50.52726 -27.90543,0 -50.52727,-22.62183 -50.52727,-50.52726 0,-27.90544 22.62184,-50.52727 50.52727,-50.52727 27.90544,0 50.52727,22.62183 50.52727,50.52727 z"
       style="fill:#bce089;fill-opacity:1;fill-rule:evenodd;stroke:#000000;stroke-width:0;stroke-linecap:butt;stroke-linejoin:miter;stroke-miterlimit:4;stroke-opacity:1"
       inkscape:connector-curvature="0" />
    <g
       transform="matrix(0.83812996,0,0,-0.83812996,140.63954,760.02084)"
       id="g3035"
       style="fill:#ffffff;fill-opacity:1">
      <g
         id="g3037"
         clip-path="url(#clipPath3039)"
         style="fill:#ffffff;fill-opacity:1">
        <g
           id="g3043"
           transform="translate(71.7104,328.0596)"
           style="fill:#ffffff;fill-opacity:1">
          <path
             inkscape:connector-curvature="0"
             d="m 0,0 -12.558,-2.754 11.862,-4.935 c 0.637,-0.326 1.362,-0.542 2.139,-0.613 2.778,-0.251 5.174,1.445 5.353,3.788 C 6.976,-2.171 4.87,-0.066 2.093,0.187 1.356,0.253 0.647,0.183 0,0"
             style="fill:#ffffff;fill-opacity:1;fill-rule:nonzero;stroke:none"
             id="path3045" />
        </g>
        <g
           id="g3047"
           transform="translate(64.0283,337.8711)"
           style="fill:#ffffff;fill-opacity:1">
          <path
             inkscape:connector-curvature="0"
             d="m 0,0 -6.896,-7.924 9.301,3.804 c 0.523,0.174 1.059,0.448 1.575,0.821 1.844,1.332 2.726,3.416 1.972,4.654 C 5.198,2.594 3.092,2.52 1.25,1.187 0.761,0.834 0.34,0.428 0,0"
             style="fill:#ffffff;fill-opacity:1;fill-rule:nonzero;stroke:none"
             id="path3049" />
        </g>
        <g
           id="g3051"
           transform="translate(48.5054,310.2783)"
           style="fill:#ffffff;fill-opacity:1">
          <path
             inkscape:connector-curvature="0"
             d="M 0,0 3.474,10.241 4.456,-0.526 C 4.544,-1.114 4.556,-1.76 4.477,-2.429 4.195,-4.819 2.87,-6.603 1.517,-6.414 0.164,-6.226 -0.707,-4.135 -0.425,-1.745 -0.351,-1.112 -0.203,-0.521 0,0"
             style="fill:#ffffff;fill-opacity:1;fill-rule:nonzero;stroke:none"
             id="path3053" />
        </g>
        <g
           id="g3055"
           transform="translate(65.9937,312.4668)"
           style="fill:#ffffff;fill-opacity:1">
          <path
             inkscape:connector-curvature="0"
             d="m 0,0 -9.95,8.79 4.065,-13.103 c 0.177,-0.745 0.485,-1.49 0.931,-2.188 1.592,-2.491 4.318,-3.424 6.089,-2.079 1.775,1.34 1.921,4.449 0.331,6.941 C 1.043,-0.977 0.542,-0.427 0,0"
             style="fill:#ffffff;fill-opacity:1;fill-rule:nonzero;stroke:none"
             id="path3057" />
        </g>
        <g
           id="g3059"
           transform="translate(100.8579,308.6846)"
           style="fill:#ffffff;fill-opacity:1">
          <path
             inkscape:connector-curvature="0"
             d="M 0,0 3.313,13.48 -6.015,4.096 C -6.565,3.619 -7.066,3.007 -7.469,2.28 c -1.441,-2.599 -1.11,-5.692 0.738,-6.906 1.847,-1.218 4.514,-0.097 5.955,2.501 C -0.394,-1.435 -0.137,-0.713 0,0"
             style="fill:#ffffff;fill-opacity:1;fill-rule:nonzero;stroke:none"
             id="path3061" />
        </g>
        <g
           id="g3063"
           transform="translate(112.3403,311.8242)"
           style="fill:#ffffff;fill-opacity:1">
          <path
             inkscape:connector-curvature="0"
             d="M 0,0 -3.454,10.249 -4.457,-0.517 c -0.089,-0.587 -0.102,-1.233 -0.024,-1.901 0.277,-2.392 1.599,-4.18 2.952,-3.992 1.354,0.185 2.228,2.273 1.95,4.664 C 0.348,-1.113 0.201,-0.522 0,0"
             style="fill:#ffffff;fill-opacity:1;fill-rule:nonzero;stroke:none"
             id="path3065" />
        </g>
        <g
           id="g3067"
           transform="translate(96.541,339.2295)"
           style="fill:#ffffff;fill-opacity:1">
          <path
             inkscape:connector-curvature="0"
             d="m 0,0 6.88,-7.938 -9.293,3.824 c -0.522,0.175 -1.058,0.451 -1.573,0.825 -1.841,1.336 -2.719,3.421 -1.963,4.658 0.756,1.237 2.862,1.157 4.702,-0.179 C -0.759,0.836 -0.339,0.429 0,0"
             style="fill:#ffffff;fill-opacity:1;fill-rule:nonzero;stroke:none"
             id="path3069" />
        </g>
        <g
           id="g3071"
           transform="translate(90.5723,321.1904)"
           style="fill:#ffffff;fill-opacity:1">
          <path
             inkscape:connector-curvature="0"
             d="M 0,0 11.65,5.806 -0.934,7.658 c -0.69,0.16 -1.44,0.19 -2.212,0.065 C -5.902,7.276 -7.88,5.028 -7.561,2.704 -7.248,0.376 -4.754,-1.147 -1.999,-0.703 -1.267,-0.583 -0.592,-0.339 0,0"
             style="fill:#ffffff;fill-opacity:1;fill-rule:nonzero;stroke:none"
             id="path3073" />
        </g>
        <g
           id="g3075"
           transform="translate(69.7388,290.624)"
           style="fill:#ffffff;fill-opacity:1">
          <path
             inkscape:connector-curvature="0"
             d="M 0,0 8.778,-10.163 6.362,3.416 C 6.28,4.178 6.066,4.963 5.71,5.719 4.439,8.421 1.852,9.742 -0.07,8.67 -1.991,7.6 -2.52,4.54 -1.25,1.838 -0.913,1.121 -0.484,0.503 0,0"
             style="fill:#ffffff;fill-opacity:1;fill-rule:nonzero;stroke:none"
             id="path3077" />
        </g>
        <g
           id="g3079"
           transform="translate(66.146,278.3369)"
           style="fill:#ffffff;fill-opacity:1">
          <path
             inkscape:connector-curvature="0"
             d="M 0,0 9.818,-2.194 1.942,4.4 C 1.53,4.792 1.033,5.144 0.47,5.424 -1.542,6.426 -3.632,6.142 -4.199,4.79 -4.767,3.438 -3.597,1.53 -1.585,0.529 -1.052,0.264 -0.514,0.089 0,0"
             style="fill:#ffffff;fill-opacity:1;fill-rule:nonzero;stroke:none"
             id="path3081" />
        </g>
        <g
           id="g3083"
           transform="translate(95.854,278.5469)"
           style="fill:#ffffff;fill-opacity:1">
          <path
             inkscape:connector-curvature="0"
             d="M 0,0 -9.818,-2.194 -1.942,4.4 C -1.53,4.792 -1.033,5.144 -0.47,5.424 1.542,6.426 3.632,6.142 4.199,4.79 4.767,3.438 3.597,1.53 1.585,0.529 1.052,0.264 0.514,0.089 0,0"
             style="fill:#ffffff;fill-opacity:1;fill-rule:nonzero;stroke:none"
             id="path3085" />
        </g>
        <g
           id="g3087"
           transform="translate(84.9141,293.5693)"
           style="fill:#ffffff;fill-opacity:1">
          <path
             inkscape:connector-curvature="0"
             d="M 0,0 -1.599,-13.846 6.47,-3.166 C 6.957,-2.61 7.375,-1.932 7.684,-1.15 8.786,1.638 8.073,4.652 6.089,5.581 4.108,6.515 1.606,5.008 0.503,2.221 0.21,1.48 0.046,0.727 0,0"
             style="fill:#ffffff;fill-opacity:1;fill-rule:nonzero;stroke:none"
             id="path3089" />
        </g>
      </g>
    </g>
    <text
       xml:space="preserve"
       style="font-size:40px;font-style:normal;font-weight:normal;line-height:125%;letter-spacing:0px;word-spacing:0px;fill:#00640d;fill-opacity:1;stroke:#ffffff;stroke-width:0;stroke-miterlimit:4;stroke-opacity:1;stroke-dasharray:none;font-family:Sans"
       x="262.57144"
       y="540.07648"
       id="text4486"
       sodipodi:linespacing="125%"><tspan
         sodipodi:role="line"
         id="tspan4488"
         x="262.57144"
         y="540.07648"
         style="font-size:72px;font-style:normal;font-variant:normal;font-weight:normal;font-stretch:normal;fill:#00640d;fill-opacity:1;stroke:#ffffff;stroke-width:0;stroke-miterlimit:4;stroke-opacity:1;stroke-dasharray:none;font-family:Palatino Linotype;-inkscape-font-specification:Palatino Linotype">cumber</tspan></text>
    <path
       style="fill:#00640d;fill-opacity:1;fill-rule:evenodd;stroke:#ffffff;stroke-width:0;stroke-miterlimit:4;stroke-opacity:1;stroke-dasharray:none"
       d="m 178.02849,546.11496 c 0.19658,0.1421 0.39266,0.28473 0.58822,0.42791 11.6304,-8.67851 26.52666,-12.00817 39.84817,-9.59849 1.12851,0.19838 2.24787,0.43728 3.35938,0.7119 6.61009,0.91728 13.1988,3.09955 19.73978,5.58074 0,0 0,0 0,0 7.73042,2.95957 15.48129,6.41165 23.69061,8.92095 0,0 0,0 0,0 20.63391,6.28397 43.10885,5.75004 63.19777,-1.34567 -20.57489,5.63272 -42.57399,4.39079 -61.76735,-3.05234 -6.32384,-2.44475 -12.41353,-5.56126 -18.68956,-8.60587 -1.37322,-0.52877 -2.75381,-1.05398 -4.14384,-1.56793 -1e-5,0 -1e-5,0 -1e-5,0 -7.88821,-2.94598 -16.2121,-5.48753 -24.87641,-6.07176 0,0 0,0 0,0 -15.07782,-0.96609 -30.1953,4.53213 -40.94676,14.60056 z"
       id="path4675"
       inkscape:path-effect="#path-effect4677;#path-effect4679"
       inkscape:original-d="m 178.75894,546.94277 c 0,0 47.47703,-25.33149 39.98945,-13.01473 -196.385322,323.0457 23.23101,17.29941 47.25786,15.91905 11.54025,-0.663 62.06108,-0.19409 62.06108,-0.19409"
       inkscape:connector-curvature="0"
       sodipodi:nodetypes="cssc" />
  </g>
</svg>
