<?xml version="1.0" encoding="UTF-8" standalone="no"?>
<!-- Created with Inkscape (http://www.inkscape.org/) -->

<svg
   xmlns:dc="http://purl.org/dc/elements/1.1/"
   xmlns:cc="http://creativecommons.org/ns#"
   xmlns:rdf="http://www.w3.org/1999/02/22-rdf-syntax-ns#"
   xmlns:svg="http://www.w3.org/2000/svg"
   xmlns="http://www.w3.org/2000/svg"
   xmlns:sodipodi="http://sodipodi.sourceforge.net/DTD/sodipodi-0.dtd"
   xmlns:inkscape="http://www.inkscape.org/namespaces/inkscape"
   width="744.09448819"
   height="1052.3622047"
   id="svg3559"
   version="1.1"
   inkscape:version="0.48.2 r9819"
   sodipodi:docname="LogoFull.svg"
   inkscape:export-filename="C:\django\QcumberD\Assets\LogoSmall.png"
   inkscape:export-xdpi="111.75687"
   inkscape:export-ydpi="111.75687">
  <defs
     id="defs3561">
    <inkscape:path-effect
       pattern-nodetypes="cccccc"
       fuse_tolerance="0"
       vertical_pattern="false"
       prop_units="false"
       tang_offset="0"
       normal_offset="0"
       spacing="0"
       scale_y_rel="false"
       prop_scale="1"
       copytype="single_stretched"
       pattern="m 466.90537,1119.5893 0.0302,0.7098 8.99917,3.7129 21.10268,-2.0971 -16.16098,-4.5403 z"
       is_visible="true"
       id="path-effect3125"
       effect="skeletal" />
    <inkscape:path-effect
       is_visible="true"
       id="path-effect3123"
       effect="spiro" />
    <inkscape:path-effect
       effect="bend_path"
       id="path-effect4681"
       is_visible="true"
       bendpath="m 145.95755,541.95588 136.18531,0"
       prop_scale="1"
       scale_y_rel="false"
       vertical="false" />
    <inkscape:path-effect
       effect="skeletal"
       id="path-effect4679"
       is_visible="true"
       pattern="m 142.541,550.60989 2e-4,0.70978 8.99917,3.71292 21.10268,-2.09712 -16.16098,-4.54028 z"
       copytype="single_stretched"
       prop_scale="1"
       scale_y_rel="false"
       spacing="0"
       normal_offset="0"
       tang_offset="0"
       prop_units="false"
       vertical_pattern="false"
       fuse_tolerance="0"
       pattern-nodetypes="cccccc" />
    <inkscape:path-effect
       effect="spiro"
       id="path-effect4677"
       is_visible="true" />
    <inkscape:path-effect
       effect="spiro"
       id="path-effect4673"
       is_visible="true" />
    <clipPath
       clipPathUnits="userSpaceOnUse"
       id="clipPath3039">
      <path
         inkscape:connector-curvature="0"
         d="M 0,480 640,480 640,0 0,0 0,480 z"
         id="path3041" />
    </clipPath>
    <inkscape:path-effect
       effect="spiro"
       id="path-effect4677-1"
       is_visible="true" />
    <inkscape:path-effect
       effect="skeletal"
       id="path-effect4679-7"
       is_visible="true"
       pattern="m 29.144441,44.338197 0.0302,0.70978 10.12564,5.16009 8.12353,0.0528 11.85268,-3.59712 -16.16098,-4.54028 z"
       copytype="single_stretched"
       prop_scale="1"
       scale_y_rel="false"
       spacing="0"
       normal_offset="0"
       tang_offset="0"
       prop_units="false"
       vertical_pattern="false"
       fuse_tolerance="0"
       pattern-nodetypes="ccccccc" />
  </defs>
  <sodipodi:namedview
     id="base"
     pagecolor="#ffffff"
     bordercolor="#666666"
     borderopacity="1.0"
     inkscape:pageopacity="0.0"
     inkscape:pageshadow="2"
     inkscape:zoom="2.8284272"
     inkscape:cx="282.77866"
     inkscape:cy="521.80264"
     inkscape:document-units="px"
     inkscape:current-layer="layer1"
     showgrid="false"
     inkscape:window-width="1600"
     inkscape:window-height="838"
     inkscape:window-x="-8"
     inkscape:window-y="-8"
     inkscape:window-maximized="1" />
  <metadata
     id="metadata3564">
    <rdf:RDF>
      <cc:Work
         rdf:about="">
        <dc:format>image/svg+xml</dc:format>
        <dc:type
           rdf:resource="http://purl.org/dc/dcmitype/StillImage" />
        <dc:title></dc:title>
      </cc:Work>
    </rdf:RDF>
  </metadata>
  <g
     inkscape:label="QSlice"
     inkscape:groupmode="layer"
     id="layer1">
    <path
       style="fill:#00640d;fill-opacity:1;fill-rule:evenodd;stroke:#ffffff;stroke-width:1.02174807;stroke-linecap:butt;stroke-linejoin:miter;stroke-miterlimit:4;stroke-opacity:1;stroke-dasharray:none"
       d="m 270.59896,478.98991 c 0,45.19255 -36.63585,81.82839 -81.82839,81.82839 -45.19257,0 -81.82841,-36.63584 -81.82841,-81.82839 0,-45.19257 36.63584,-81.82838 81.82841,-81.82838 45.19254,0 81.82839,36.63581 81.82839,81.82838 z"
       id="path3575"
       inkscape:connector-curvature="0" />
    <path
       id="path4346"
       d="m 257.14286,433.43362 c 0,32.93984 -26.70302,59.64286 -59.64286,59.64286 -32.93984,0 -59.64286,-26.70302 -59.64286,-59.64286 0,-32.93984 26.70302,-59.64285 59.64286,-59.64285 32.93984,0 59.64286,26.70301 59.64286,59.64285 z"
       style="fill:#bce089;fill-opacity:1;fill-rule:evenodd;stroke:#000000;stroke-width:0;stroke-linecap:butt;stroke-linejoin:miter;stroke-miterlimit:4;stroke-opacity:1"
       transform="matrix(1.2634731,0,0,1.2634731,-60.607357,-68.483796)" />
    <g
       transform="matrix(1.25,0,0,-1.25,88.939137,864.80278)"
       id="g3035"
       style="fill:#ffffff;fill-opacity:1">
      <g
         id="g3037"
         clip-path="url(#clipPath3039)"
         style="fill:#ffffff;fill-opacity:1">
        <g
           id="g3043"
           transform="translate(71.7104,328.0596)"
           style="fill:#ffffff;fill-opacity:1">
          <path
             inkscape:connector-curvature="0"
             d="m 0,0 -12.558,-2.754 11.862,-4.935 c 0.637,-0.326 1.362,-0.542 2.139,-0.613 2.778,-0.251 5.174,1.445 5.353,3.788 C 6.976,-2.171 4.87,-0.066 2.093,0.187 1.356,0.253 0.647,0.183 0,0"
             style="fill:#ffffff;fill-opacity:1;fill-rule:nonzero;stroke:none"
             id="path3045" />
        </g>
        <g
           id="g3047"
           transform="translate(64.0283,337.8711)"
           style="fill:#ffffff;fill-opacity:1">
          <path
             inkscape:connector-curvature="0"
             d="m 0,0 -6.896,-7.924 9.301,3.804 c 0.523,0.174 1.059,0.448 1.575,0.821 1.844,1.332 2.726,3.416 1.972,4.654 C 5.198,2.594 3.092,2.52 1.25,1.187 0.761,0.834 0.34,0.428 0,0"
             style="fill:#ffffff;fill-opacity:1;fill-rule:nonzero;stroke:none"
             id="path3049" />
        </g>
        <g
           id="g3051"
           transform="translate(48.5054,310.2783)"
           style="fill:#ffffff;fill-opacity:1">
          <path
             inkscape:connector-curvature="0"
             d="M 0,0 3.474,10.241 4.456,-0.526 C 4.544,-1.114 4.556,-1.76 4.477,-2.429 4.195,-4.819 2.87,-6.603 1.517,-6.414 0.164,-6.226 -0.707,-4.135 -0.425,-1.745 -0.351,-1.112 -0.203,-0.521 0,0"
             style="fill:#ffffff;fill-opacity:1;fill-rule:nonzero;stroke:none"
             id="path3053" />
        </g>
        <g
           id="g3055"
           transform="translate(65.9937,312.4668)"
           style="fill:#ffffff;fill-opacity:1">
          <path
             inkscape:connector-curvature="0"
             d="m 0,0 -9.95,8.79 4.065,-13.103 c 0.177,-0.745 0.485,-1.49 0.931,-2.188 1.592,-2.491 4.318,-3.424 6.089,-2.079 1.775,1.34 1.921,4.449 0.331,6.941 C 1.043,-0.977 0.542,-0.427 0,0"
             style="fill:#ffffff;fill-opacity:1;fill-rule:nonzero;stroke:none"
             id="path3057" />
        </g>
        <g
           id="g3059"
           transform="translate(100.8579,308.6846)"
           style="fill:#ffffff;fill-opacity:1">
          <path
             inkscape:connector-curvature="0"
             d="M 0,0 3.313,13.48 -6.015,4.096 C -6.565,3.619 -7.066,3.007 -7.469,2.28 c -1.441,-2.599 -1.11,-5.692 0.738,-6.906 1.847,-1.218 4.514,-0.097 5.955,2.501 C -0.394,-1.435 -0.137,-0.713 0,0"
             style="fill:#ffffff;fill-opacity:1;fill-rule:nonzero;stroke:none"
             id="path3061" />
        </g>
        <g
           id="g3063"
           transform="translate(112.3403,311.8242)"
           style="fill:#ffffff;fill-opacity:1">
          <path
             inkscape:connector-curvature="0"
             d="M 0,0 -3.454,10.249 -4.457,-0.517 c -0.089,-0.587 -0.102,-1.233 -0.024,-1.901 0.277,-2.392 1.599,-4.18 2.952,-3.992 1.354,0.185 2.228,2.273 1.95,4.664 C 0.348,-1.113 0.201,-0.522 0,0"
             style="fill:#ffffff;fill-opacity:1;fill-rule:nonzero;stroke:none"
             id="path3065" />
        </g>
        <g
           id="g3067"
           transform="translate(96.541,339.2295)"
           style="fill:#ffffff;fill-opacity:1">
          <path
             inkscape:connector-curvature="0"
             d="m 0,0 6.88,-7.938 -9.293,3.824 c -0.522,0.175 -1.058,0.451 -1.573,0.825 -1.841,1.336 -2.719,3.421 -1.963,4.658 0.756,1.237 2.862,1.157 4.702,-0.179 C -0.759,0.836 -0.339,0.429 0,0"
             style="fill:#ffffff;fill-opacity:1;fill-rule:nonzero;stroke:none"
             id="path3069" />
        </g>
        <g
           id="g3071"
           transform="translate(90.5723,321.1904)"
           style="fill:#ffffff;fill-opacity:1">
          <path
             inkscape:connector-curvature="0"
             d="M 0,0 11.65,5.806 -0.934,7.658 c -0.69,0.16 -1.44,0.19 -2.212,0.065 C -5.902,7.276 -7.88,5.028 -7.561,2.704 -7.248,0.376 -4.754,-1.147 -1.999,-0.703 -1.267,-0.583 -0.592,-0.339 0,0"
             style="fill:#ffffff;fill-opacity:1;fill-rule:nonzero;stroke:none"
             id="path3073" />
        </g>
        <g
           id="g3075"
           transform="translate(69.7388,290.624)"
           style="fill:#ffffff;fill-opacity:1">
          <path
             inkscape:connector-curvature="0"
             d="M 0,0 8.778,-10.163 6.362,3.416 C 6.28,4.178 6.066,4.963 5.71,5.719 4.439,8.421 1.852,9.742 -0.07,8.67 -1.991,7.6 -2.52,4.54 -1.25,1.838 -0.913,1.121 -0.484,0.503 0,0"
             style="fill:#ffffff;fill-opacity:1;fill-rule:nonzero;stroke:none"
             id="path3077" />
        </g>
        <g
           id="g3079"
           transform="translate(66.146,278.3369)"
           style="fill:#ffffff;fill-opacity:1">
          <path
             inkscape:connector-curvature="0"
             d="M 0,0 9.818,-2.194 1.942,4.4 C 1.53,4.792 1.033,5.144 0.47,5.424 -1.542,6.426 -3.632,6.142 -4.199,4.79 -4.767,3.438 -3.597,1.53 -1.585,0.529 -1.052,0.264 -0.514,0.089 0,0"
             style="fill:#ffffff;fill-opacity:1;fill-rule:nonzero;stroke:none"
             id="path3081" />
        </g>
        <g
           id="g3083"
           transform="translate(95.854,278.5469)"
           style="fill:#ffffff;fill-opacity:1">
          <path
             inkscape:connector-curvature="0"
             d="M 0,0 -9.818,-2.194 -1.942,4.4 C -1.53,4.792 -1.033,5.144 -0.47,5.424 1.542,6.426 3.632,6.142 4.199,4.79 4.767,3.438 3.597,1.53 1.585,0.529 1.052,0.264 0.514,0.089 0,0"
             style="fill:#ffffff;fill-opacity:1;fill-rule:nonzero;stroke:none"
             id="path3085" />
        </g>
        <g
           id="g3087"
           transform="translate(84.9141,293.5693)"
           style="fill:#ffffff;fill-opacity:1">
          <path
             inkscape:connector-curvature="0"
             d="M 0,0 -1.599,-13.846 6.47,-3.166 C 6.957,-2.61 7.375,-1.932 7.684,-1.15 8.786,1.638 8.073,4.652 6.089,5.581 4.108,6.515 1.606,5.008 0.503,2.221 0.21,1.48 0.046,0.727 0,0"
             style="fill:#ffffff;fill-opacity:1;fill-rule:nonzero;stroke:none"
             id="path3089" />
        </g>
      </g>
    </g>
    <path
       style="fill:#00640d;fill-opacity:1;fill-rule:evenodd;stroke:#ffffff;stroke-width:1;stroke-miterlimit:4;stroke-opacity:1;stroke-dasharray:none"
       d="m 147.66564,541.60592 c 0.20383,0.12011 0.40767,0.24023 0.61149,0.36036 4.36665,-6.29569 10.82028,-10.87261 17.80365,-12.91475 6.98215,-2.04635 14.51453,-1.57156 20.87149,1.08678 0,0 0,0 1e-5,0 1.54166,0.62611 3.02102,1.38409 4.45486,2.24501 4.7651,2.25788 9.26392,5.63474 13.75961,9.12935 5.87922,4.66533 11.97849,9.72067 19.29486,13.0628 0,0 1e-5,0 1e-5,0 12.84602,5.77001 28.22873,4.81879 40.11004,-2.28262 0,0 10e-6,0 10e-6,0 11.86753,-7.1253 19.75664,-20.11424 20.6876,-33.6842 -1.81653,13.49457 -10.49418,25.49435 -22.01925,31.37422 0,0 0,0 0,0 -11.51969,5.88919 -25.71835,5.59406 -36.50707,-0.23215 0,0 -10e-6,0 -10e-6,0 -3.32369,-1.76118 -6.3704,-4.04021 -9.35214,-6.55461 -2.79308,-1.99402 -5.56027,-4.18631 -8.39734,-6.35724 -6.01958,-4.70112 -12.63952,-9.38289 -20.38873,-11.73961 0,0 -1e-5,0 -1e-5,0 -7.77436,-2.30596 -16.20382,-1.86421 -23.57468,1.14089 -7.36872,3.01079 -13.56073,8.538 -17.3544,15.36577 z"
       id="path4675"
       inkscape:path-effect="#path-effect4677;#path-effect4679"
       inkscape:original-d="m 148.61586,542.16796 c 0,0 24.83381,-15.24293 39.24128,-14.80578 24.0554,0.72989 13.69143,26.22771 37.71828,24.84735 11.54025,-0.663 58.46667,-33.7045 58.46667,-33.7045"
       inkscape:connector-curvature="0"
       sodipodi:nodetypes="cssc" />
  </g>
</svg>
